<?xml version="1.0" standalone="no"?><!DOCTYPE svg PUBLIC "-//W3C//DTD SVG 1.1//EN" "http://www.w3.org/Graphics/SVG/1.1/DTD/svg11.dtd"><svg t="1778400302304" class="icon" viewBox="0 0 1316 1024" version="1.1" xmlns="http://www.w3.org/2000/svg" p-id="16077" xmlns:xlink="http://www.w3.org/1999/xlink" width="329" height="256"><path d="M958.81904802 32c49.95428531 0 94.28571469 32.02285688 109.92 79.44l80.60571375 244.35428531h42.96a95.31428531 95.31428531 0 0 1 95.31428625 95.31428625v5.21142844c0 53.17714313-35.65714313 99.77142844-87.01714313 113.62285688l-22.14857156 5.96571468v283.61142844a116.33142844 116.33142844 0 1 1-232.66285688 0v-19.95428531H402.91047645v19.95428531a116.33142844 116.33142844 0 0 1-232.66285781 0V580.57142844l-32.19428531-9.36A117.66857156 117.66857156 0 0 1 53.33333333 458.17142844v-7.06285688a95.31428531 95.31428531 0 0 1 95.31428531-95.31428625h50.67428625l80.60571375-244.38857062A115.71428531 115.71428531 0 0 1 389.81333333 32h569.04z m0 68.57142844H389.84761864c-20.33142844 0-38.4 13.02857156-44.74285687 32.36571469l-96.17142844 291.42857156H148.64761864a26.74285688 26.74285688 0 0 0-26.74285687 26.74285687v7.09714313c0 21.80571469 14.4 41.00571469 35.34857156 47.10857062l81.56571469 23.79428625v330.41142844a47.76 47.76 0 0 0 95.52 0v-88.52571469H1014.36190489v88.52571469a47.76 47.76 0 0 0 95.52 0v-336.13714313l72.85714313-19.68A49.09714313 49.09714313 0 0 0 1219.04761864 456.32v-5.17714313a26.74285688 26.74285688 0 0 0-26.74285687-26.74285687H1099.73333333l-96.13714312-291.42857156A47.14285687 47.14285687 0 0 0 958.81904802 100.57142844zM416.38476177 467.63428531a108.89142844 108.89142844 0 1 1 0 217.81714313 108.89142844 108.89142844 0 0 1 0-217.81714313z m508.25142844 0a108.89142844 108.89142844 0 1 1 0 217.81714313 108.89142844 108.89142844 0 0 1 0-217.81714313z m-508.25142844 68.57142938a40.32 40.32 0 1 0 0 80.67428531 40.32 40.32 0 0 0 0-80.67428531z m508.25142844 0a40.32 40.32 0 1 0 0 80.67428531 40.32 40.32 0 0 0 0-80.67428531z m36.30857156-211.78285781a34.28571469 34.28571469 0 1 1 0 68.57142843H380.04190489a34.28571469 34.28571469 0 0 1 0-68.57142844h580.86857157z" fill="#1296db" p-id="16078"></path></svg>